# xmcd
#
# Track frame offsets:
#	150
#	12446
#	24325
#	62340
#	76159
#	86870
#	98671
#	110905
#	129404
#	142296
#	152774
#	170642
#	188959
#	201144
#	214067
#	232251
#
# Disc length: 3319 seconds
#
# Revision: 0
# Processed by: cddbd v1.4PL0 Copyright (c) Steve Scherf et al.
# Submitted via: dBpowerAMP V4.0
#
DISCID=e10cf510
DTITLE=Johnny Cash - 16 Greatest Hits
DYEAR=1999
DGENRE=Country
TTITLE0=I Walk The Line
TTITLE1=I Still Miss Someone
TTITLE2=Legend Of John Henry's Hammer
TTITLE3=Don't Take Your Guns To Town
TTITLE4=In The Jailhouse Now
TTITLE5=Ring Of Fire
TTITLE6=Understand Your Man
TTITLE7=Ballad Of Ira Hayes
TTITLE8=Folsom Prison Blues
TTITLE9=Daddy Sang Bass
TTITLE10=Boy Named Sue
TTITLE11=Sunday Morning Coming Down
TTITLE12=Flesh And Blood
TTITLE13=Man In Black
TTITLE14=One Piece At A Time
TTITLE15=Ghost Riders In The Sky
EXTD=
EXTT0=
EXTT1=
EXTT2=
EXTT3=
EXTT4=
EXTT5=
EXTT6=
EXTT7=
EXTT8=
EXTT9=
EXTT10=
EXTT11=
EXTT12=
EXTT13=
EXTT14=
EXTT15=
PLAYORDER=
